# xmcd
#
# Track frame offsets: 
#        150
#        14876
#        32921
#        58754
#        72822
#        90992
#        105040
#        119816
#        141783
#        152317
#        169929
#        182443
#
# Disc length: 2790 seconds
#
# Revision: 0
# Processed by: cddbd v1.5.2PL0 Copyright (c) Steve Scherf et al.
# Submitted via: ExactAudioCopy v1.0b1
#
DISCID=980ae40c
DTITLE=Tommy Ray O'Dell - Soul Revolution
DYEAR=1998
DGENRE=Christian Rock
TTITLE0=Jesus Said It
TTITLE1=Rightious Blues
TTITLE2=Rose Like A Lion
TTITLE3=Run
TTITLE4=Bloody Tracks
TTITLE5=Deep Roots
TTITLE6=He's Mine
TTITLE7=Soul Revolution
TTITLE8=Still Falls Like Rain
TTITLE9=I'm Gonna Move
TTITLE10=King Boy
TTITLE11=Amazing Grace
EXTD=
EXTT0=
EXTT1=
EXTT2=
EXTT3=
EXTT4=
EXTT5=
EXTT6=
EXTT7=
EXTT8=
EXTT9=
EXTT10=
EXTT11=
PLAYORDER=
